<svg width="247" height="33" viewBox="0 0 247 33" fill="none" xmlns="http://www.w3.org/2000/svg">
<path d="M10.8921 6.065C10.8921 7.565 10.4471 8.76 9.55705 9.65C8.55705 10.71 7.24205 11.24 5.61205 11.24C4.05205 11.24 2.73205 10.7 1.65205 9.62C0.572051 8.54 0.0320508 7.21 0.0320508 5.63C0.0320508 4.05 0.572051 2.72 1.65205 1.64C2.73205 0.559999 4.05205 0.0199992 5.61205 0.0199992C6.40205 0.0199992 7.14705 0.159999 7.84705 0.439999C8.54705 0.719999 9.12205 1.115 9.57205 1.625L8.58205 2.615C8.25205 2.215 7.82205 1.905 7.29205 1.685C6.77205 1.455 6.21205 1.34 5.61205 1.34C4.44205 1.34 3.45205 1.745 2.64205 2.555C1.84205 3.375 1.44205 4.4 1.44205 5.63C1.44205 6.86 1.84205 7.885 2.64205 8.705C3.45205 9.515 4.44205 9.92 5.61205 9.92C6.68205 9.92 7.57205 9.62 8.28205 9.02C8.99205 8.42 9.40205 7.595 9.51205 6.545H5.61205V5.255H10.8171C10.8671 5.535 10.8921 5.805 10.8921 6.065ZM11.8355 7.325C11.8355 6.195 12.1905 5.26 12.9005 4.52C13.6205 3.78 14.5255 3.41 15.6155 3.41C16.7055 3.41 17.6055 3.78 18.3155 4.52C19.0355 5.26 19.3955 6.195 19.3955 7.325C19.3955 8.465 19.0355 9.4 18.3155 10.13C17.6055 10.87 16.7055 11.24 15.6155 11.24C14.5255 11.24 13.6205 10.87 12.9005 10.13C12.1905 9.39 11.8355 8.455 11.8355 7.325ZM13.2155 7.325C13.2155 8.115 13.4455 8.755 13.9055 9.245C14.3655 9.735 14.9355 9.98 15.6155 9.98C16.2955 9.98 16.8655 9.735 17.3255 9.245C17.7855 8.755 18.0155 8.115 18.0155 7.325C18.0155 6.545 17.7855 5.91 17.3255 5.42C16.8555 4.92 16.2855 4.67 15.6155 4.67C14.9455 4.67 14.3755 4.92 13.9055 5.42C13.4455 5.91 13.2155 6.545 13.2155 7.325ZM20.2291 7.325C20.2291 6.195 20.5841 5.26 21.2941 4.52C22.0141 3.78 22.9191 3.41 24.0091 3.41C25.0991 3.41 25.9991 3.78 26.7091 4.52C27.4291 5.26 27.7891 6.195 27.7891 7.325C27.7891 8.465 27.4291 9.4 26.7091 10.13C25.9991 10.87 25.0991 11.24 24.0091 11.24C22.9191 11.24 22.0141 10.87 21.2941 10.13C20.5841 9.39 20.2291 8.455 20.2291 7.325ZM21.6091 7.325C21.6091 8.115 21.8391 8.755 22.2991 9.245C22.7591 9.735 23.3291 9.98 24.0091 9.98C24.6891 9.98 25.2591 9.735 25.7191 9.245C26.1791 8.755 26.4091 8.115 26.4091 7.325C26.4091 6.545 26.1791 5.91 25.7191 5.42C25.2491 4.92 24.6791 4.67 24.0091 4.67C23.3391 4.67 22.7691 4.92 22.2991 5.42C21.8391 5.91 21.6091 6.545 21.6091 7.325ZM32.3426 9.98C33.0226 9.98 33.5776 9.735 34.0076 9.245C34.4576 8.755 34.6826 8.115 34.6826 7.325C34.6826 6.555 34.4576 5.92 34.0076 5.42C33.5676 4.92 33.0126 4.67 32.3426 4.67C31.6826 4.67 31.1276 4.92 30.6776 5.42C30.2276 5.92 30.0026 6.555 30.0026 7.325C30.0026 8.105 30.2276 8.74 30.6776 9.23C31.1276 9.73 31.6826 9.98 32.3426 9.98ZM32.2976 14.48C31.8876 14.48 31.5026 14.425 31.1426 14.315C30.7826 14.215 30.4526 14.07 30.1526 13.88C29.8626 13.69 29.6126 13.465 29.4026 13.205C29.1926 12.945 29.0326 12.655 28.9226 12.335L30.2276 11.795C30.3776 12.225 30.6376 12.57 31.0076 12.83C31.3776 13.09 31.8076 13.22 32.2976 13.22C33.0476 13.22 33.6326 12.995 34.0526 12.545C34.4726 12.095 34.6826 11.475 34.6826 10.685V9.98H34.6226C34.3626 10.37 34.0076 10.68 33.5576 10.91C33.1176 11.13 32.6376 11.24 32.1176 11.24C31.1576 11.24 30.3326 10.865 29.6426 10.115C28.9626 9.345 28.6226 8.415 28.6226 7.325C28.6226 6.235 28.9626 5.31 29.6426 4.55C30.3326 3.79 31.1576 3.41 32.1176 3.41C32.6376 3.41 33.1176 3.525 33.5576 3.755C34.0076 3.975 34.3626 4.28 34.6226 4.67H34.6826V3.65H36.0026V10.685C36.0026 11.865 35.6676 12.79 34.9976 13.46C34.3176 14.14 33.4176 14.48 32.2976 14.48ZM39.0652 0.26V11H37.6852V0.26H39.0652ZM43.9735 11.24C42.8935 11.24 42.0035 10.87 41.3035 10.13C40.6035 9.39 40.2535 8.455 40.2535 7.325C40.2535 6.205 40.5935 5.275 41.2735 4.535C41.9535 3.785 42.8235 3.41 43.8835 3.41C44.9735 3.41 45.8385 3.765 46.4785 4.475C47.1285 5.175 47.4535 6.16 47.4535 7.43L47.4385 7.58H41.6635C41.6835 8.3 41.9235 8.88 42.3835 9.32C42.8435 9.76 43.3935 9.98 44.0335 9.98C44.9135 9.98 45.6035 9.54 46.1035 8.66L47.3335 9.26C47.0035 9.88 46.5435 10.365 45.9535 10.715C45.3735 11.065 44.7135 11.24 43.9735 11.24ZM41.7685 6.44H45.9835C45.9435 5.93 45.7335 5.51 45.3535 5.18C44.9835 4.84 44.4835 4.67 43.8535 4.67C43.3335 4.67 42.8835 4.83 42.5035 5.15C42.1335 5.47 41.8885 5.9 41.7685 6.44ZM52.2514 11V0.26H55.5364C57.1764 0.26 58.4914 0.755 59.4814 1.745C60.4814 2.735 60.9814 4.03 60.9814 5.63C60.9814 7.24 60.4814 8.54 59.4814 9.53C58.4914 10.51 57.1764 11 55.5364 11H52.2514ZM53.6314 1.58V9.68H55.5364C56.7864 9.68 57.7714 9.325 58.4914 8.615C59.2114 7.895 59.5714 6.9 59.5714 5.63C59.5714 4.37 59.2114 3.38 58.4914 2.66C57.7714 1.94 56.7864 1.58 55.5364 1.58H53.6314ZM65.4628 11.24C64.3828 11.24 63.4928 10.87 62.7928 10.13C62.0928 9.39 61.7428 8.455 61.7428 7.325C61.7428 6.205 62.0828 5.275 62.7628 4.535C63.4428 3.785 64.3128 3.41 65.3728 3.41C66.4628 3.41 67.3278 3.765 67.9678 4.475C68.6178 5.175 68.9428 6.16 68.9428 7.43L68.9278 7.58H63.1528C63.1728 8.3 63.4128 8.88 63.8728 9.32C64.3328 9.76 64.8828 9.98 65.5228 9.98C66.4028 9.98 67.0928 9.54 67.5928 8.66L68.8228 9.26C68.4928 9.88 68.0328 10.365 67.4428 10.715C66.8628 11.065 66.2028 11.24 65.4628 11.24ZM63.2578 6.44H67.4728C67.4328 5.93 67.2228 5.51 66.8428 5.18C66.4728 4.84 65.9728 4.67 65.3428 4.67C64.8228 4.67 64.3728 4.83 63.9928 5.15C63.6228 5.47 63.3778 5.9 63.2578 6.44ZM73.6283 11H72.2483L69.2783 3.65H70.7783L72.9383 9.35H72.9683L75.1583 3.65H76.6283L73.6283 11ZM80.6092 11.24C79.5292 11.24 78.6392 10.87 77.9392 10.13C77.2392 9.39 76.8892 8.455 76.8892 7.325C76.8892 6.205 77.2292 5.275 77.9092 4.535C78.5892 3.785 79.4592 3.41 80.5192 3.41C81.6092 3.41 82.4742 3.765 83.1142 4.475C83.7642 5.175 84.0892 6.16 84.0892 7.43L84.0742 7.58H78.2992C78.3192 8.3 78.5592 8.88 79.0192 9.32C79.4792 9.76 80.0292 9.98 80.6692 9.98C81.5492 9.98 82.2392 9.54 82.7392 8.66L83.9692 9.26C83.6392 9.88 83.1792 10.365 82.5892 10.715C82.0092 11.065 81.3492 11.24 80.6092 11.24ZM78.4042 6.44H82.6192C82.5792 5.93 82.3692 5.51 81.9892 5.18C81.6192 4.84 81.1192 4.67 80.4892 4.67C79.9692 4.67 79.5192 4.83 79.1392 5.15C78.7692 5.47 78.5242 5.9 78.4042 6.44ZM86.7312 0.26V11H85.3512V0.26H86.7312ZM87.9195 7.325C87.9195 6.195 88.2745 5.26 88.9845 4.52C89.7045 3.78 90.6095 3.41 91.6995 3.41C92.7895 3.41 93.6895 3.78 94.3995 4.52C95.1195 5.26 95.4795 6.195 95.4795 7.325C95.4795 8.465 95.1195 9.4 94.3995 10.13C93.6895 10.87 92.7895 11.24 91.6995 11.24C90.6095 11.24 89.7045 10.87 88.9845 10.13C88.2745 9.39 87.9195 8.455 87.9195 7.325ZM89.2995 7.325C89.2995 8.115 89.5295 8.755 89.9895 9.245C90.4495 9.735 91.0195 9.98 91.6995 9.98C92.3795 9.98 92.9495 9.735 93.4095 9.245C93.8695 8.755 94.0995 8.115 94.0995 7.325C94.0995 6.545 93.8695 5.91 93.4095 5.42C92.9395 4.92 92.3695 4.67 91.6995 4.67C91.0295 4.67 90.4595 4.92 89.9895 5.42C89.5295 5.91 89.2995 6.545 89.2995 7.325ZM100.26 9.98C100.92 9.98 101.475 9.73 101.925 9.23C102.375 8.74 102.6 8.105 102.6 7.325C102.6 6.555 102.375 5.92 101.925 5.42C101.475 4.92 100.92 4.67 100.26 4.67C99.5898 4.67 99.0298 4.92 98.5798 5.42C98.1398 5.92 97.9198 6.555 97.9198 7.325C97.9198 8.105 98.1398 8.745 98.5798 9.245C99.0298 9.735 99.5898 9.98 100.26 9.98ZM100.485 11.24C99.9448 11.24 99.4498 11.125 98.9998 10.895C98.5598 10.665 98.2198 10.36 97.9798 9.98H97.9198L97.9798 11V14.24H96.5998V3.65H97.9198V4.67H97.9798C98.2198 4.29 98.5598 3.985 98.9998 3.755C99.4498 3.525 99.9448 3.41 100.485 3.41C101.455 3.41 102.275 3.79 102.945 4.55C103.635 5.32 103.98 6.245 103.98 7.325C103.98 8.415 103.635 9.34 102.945 10.1C102.275 10.86 101.455 11.24 100.485 11.24ZM108.544 11.24C107.464 11.24 106.574 10.87 105.874 10.13C105.174 9.39 104.824 8.455 104.824 7.325C104.824 6.205 105.164 5.275 105.844 4.535C106.524 3.785 107.394 3.41 108.454 3.41C109.544 3.41 110.409 3.765 111.049 4.475C111.699 5.175 112.024 6.16 112.024 7.43L112.009 7.58H106.234C106.254 8.3 106.494 8.88 106.954 9.32C107.414 9.76 107.964 9.98 108.604 9.98C109.484 9.98 110.174 9.54 110.674 8.66L111.904 9.26C111.574 9.88 111.114 10.365 110.524 10.715C109.944 11.065 109.284 11.24 108.544 11.24ZM106.339 6.44H110.554C110.514 5.93 110.304 5.51 109.924 5.18C109.554 4.84 109.054 4.67 108.424 4.67C107.904 4.67 107.454 4.83 107.074 5.15C106.704 5.47 106.459 5.9 106.339 6.44ZM114.666 11H113.286V3.65H114.606V4.85H114.666C114.806 4.46 115.091 4.13 115.521 3.86C115.961 3.58 116.391 3.44 116.811 3.44C117.211 3.44 117.551 3.5 117.831 3.62L117.411 4.955C117.241 4.885 116.971 4.85 116.601 4.85C116.081 4.85 115.626 5.06 115.236 5.48C114.856 5.9 114.666 6.39 114.666 6.95V11ZM132.313 6.065C132.313 7.565 131.868 8.76 130.978 9.65C129.978 10.71 128.663 11.24 127.033 11.24C125.473 11.24 124.153 10.7 123.073 9.62C121.993 8.54 121.453 7.21 121.453 5.63C121.453 4.05 121.993 2.72 123.073 1.64C124.153 0.559999 125.473 0.0199992 127.033 0.0199992C127.823 0.0199992 128.568 0.159999 129.268 0.439999C129.968 0.719999 130.543 1.115 130.993 1.625L130.003 2.615C129.673 2.215 129.243 1.905 128.713 1.685C128.193 1.455 127.633 1.34 127.033 1.34C125.863 1.34 124.873 1.745 124.063 2.555C123.263 3.375 122.863 4.4 122.863 5.63C122.863 6.86 123.263 7.885 124.063 8.705C124.873 9.515 125.863 9.92 127.033 9.92C128.103 9.92 128.993 9.62 129.703 9.02C130.413 8.42 130.823 7.595 130.933 6.545H127.033V5.255H132.238C132.288 5.535 132.313 5.805 132.313 6.065ZM134.837 11H133.457V3.65H134.777V4.85H134.837C134.977 4.46 135.262 4.13 135.692 3.86C136.132 3.58 136.562 3.44 136.982 3.44C137.382 3.44 137.722 3.5 138.002 3.62L137.582 4.955C137.412 4.885 137.142 4.85 136.772 4.85C136.252 4.85 135.797 5.06 135.407 5.48C135.027 5.9 134.837 6.39 134.837 6.95V11ZM138.032 7.325C138.032 6.195 138.387 5.26 139.097 4.52C139.817 3.78 140.722 3.41 141.812 3.41C142.902 3.41 143.802 3.78 144.512 4.52C145.232 5.26 145.592 6.195 145.592 7.325C145.592 8.465 145.232 9.4 144.512 10.13C143.802 10.87 142.902 11.24 141.812 11.24C140.722 11.24 139.817 10.87 139.097 10.13C138.387 9.39 138.032 8.455 138.032 7.325ZM139.412 7.325C139.412 8.115 139.642 8.755 140.102 9.245C140.562 9.735 141.132 9.98 141.812 9.98C142.492 9.98 143.062 9.735 143.522 9.245C143.982 8.755 144.212 8.115 144.212 7.325C144.212 6.545 143.982 5.91 143.522 5.42C143.052 4.92 142.482 4.67 141.812 4.67C141.142 4.67 140.572 4.92 140.102 5.42C139.642 5.91 139.412 6.545 139.412 7.325ZM153.222 11H151.902V9.98H151.842C151.632 10.34 151.307 10.64 150.867 10.88C150.437 11.12 149.987 11.24 149.517 11.24C148.617 11.24 147.922 10.985 147.432 10.475C146.952 9.955 146.712 9.22 146.712 8.27V3.65H148.092V8.18C148.122 9.38 148.727 9.98 149.907 9.98C150.457 9.98 150.917 9.76 151.287 9.32C151.657 8.87 151.842 8.335 151.842 7.715V3.65H153.222V11ZM158.502 9.98C159.162 9.98 159.717 9.73 160.167 9.23C160.617 8.74 160.842 8.105 160.842 7.325C160.842 6.555 160.617 5.92 160.167 5.42C159.717 4.92 159.162 4.67 158.502 4.67C157.832 4.67 157.272 4.92 156.822 5.42C156.382 5.92 156.162 6.555 156.162 7.325C156.162 8.105 156.382 8.745 156.822 9.245C157.272 9.735 157.832 9.98 158.502 9.98ZM158.727 11.24C158.187 11.24 157.692 11.125 157.242 10.895C156.802 10.665 156.462 10.36 156.222 9.98H156.162L156.222 11V14.24H154.842V3.65H156.162V4.67H156.222C156.462 4.29 156.802 3.985 157.242 3.755C157.692 3.525 158.187 3.41 158.727 3.41C159.697 3.41 160.517 3.79 161.187 4.55C161.877 5.32 162.222 6.245 162.222 7.325C162.222 8.415 161.877 9.34 161.187 10.1C160.517 10.86 159.697 11.24 158.727 11.24ZM169.038 8.96C169.038 9.6 168.758 10.14 168.198 10.58C167.638 11.02 166.933 11.24 166.083 11.24C165.343 11.24 164.693 11.05 164.133 10.67C163.573 10.28 163.173 9.77 162.933 9.14L164.163 8.615C164.343 9.055 164.603 9.4 164.943 9.65C165.293 9.89 165.673 10.01 166.083 10.01C166.523 10.01 166.888 9.915 167.178 9.725C167.478 9.535 167.628 9.31 167.628 9.05C167.628 8.58 167.268 8.235 166.548 8.015L165.288 7.7C163.858 7.34 163.143 6.65 163.143 5.63C163.143 4.96 163.413 4.425 163.953 4.025C164.503 3.615 165.203 3.41 166.053 3.41C166.703 3.41 167.288 3.565 167.808 3.875C168.338 4.185 168.708 4.6 168.918 5.12L167.688 5.63C167.548 5.32 167.318 5.08 166.998 4.91C166.688 4.73 166.338 4.64 165.948 4.64C165.588 4.64 165.263 4.73 164.973 4.91C164.693 5.09 164.553 5.31 164.553 5.57C164.553 5.99 164.948 6.29 165.738 6.47L166.848 6.755C168.308 7.115 169.038 7.85 169.038 8.96ZM173.115 7.325C173.115 6.195 173.47 5.26 174.18 4.52C174.9 3.78 175.805 3.41 176.895 3.41C177.985 3.41 178.885 3.78 179.595 4.52C180.315 5.26 180.675 6.195 180.675 7.325C180.675 8.465 180.315 9.4 179.595 10.13C178.885 10.87 177.985 11.24 176.895 11.24C175.805 11.24 174.9 10.87 174.18 10.13C173.47 9.39 173.115 8.455 173.115 7.325ZM174.495 7.325C174.495 8.115 174.725 8.755 175.185 9.245C175.645 9.735 176.215 9.98 176.895 9.98C177.575 9.98 178.145 9.735 178.605 9.245C179.065 8.755 179.295 8.115 179.295 7.325C179.295 6.545 179.065 5.91 178.605 5.42C178.135 4.92 177.565 4.67 176.895 4.67C176.225 4.67 175.655 4.92 175.185 5.42C174.725 5.91 174.495 6.545 174.495 7.325ZM181.782 3.65H183.102V4.67H183.162C183.372 4.31 183.692 4.01 184.122 3.77C184.562 3.53 185.017 3.41 185.487 3.41C186.387 3.41 187.077 3.67 187.557 4.19C188.047 4.7 188.292 5.43 188.292 6.38V11H186.912V6.47C186.882 5.27 186.277 4.67 185.097 4.67C184.547 4.67 184.087 4.895 183.717 5.345C183.347 5.785 183.162 6.315 183.162 6.935V11H181.782V3.65ZM198.21 11.24C196.62 11.24 195.29 10.705 194.22 9.635C193.16 8.565 192.63 7.23 192.63 5.63C192.63 4.03 193.16 2.7 194.22 1.64C195.28 0.559999 196.61 0.0199992 198.21 0.0199992C199.83 0.0199992 201.145 0.604999 202.155 1.775L201.165 2.735C200.395 1.805 199.41 1.34 198.21 1.34C197.02 1.34 196.025 1.74 195.225 2.54C194.435 3.33 194.04 4.36 194.04 5.63C194.04 6.9 194.435 7.93 195.225 8.72C196.025 9.52 197.02 9.92 198.21 9.92C199.46 9.92 200.545 9.395 201.465 8.345L202.47 9.32C201.96 9.93 201.335 10.405 200.595 10.745C199.855 11.075 199.06 11.24 198.21 11.24ZM204.554 8.75C204.554 9.11 204.704 9.41 205.004 9.65C205.314 9.89 205.674 10.01 206.084 10.01C206.664 10.01 207.179 9.795 207.629 9.365C208.089 8.935 208.319 8.43 208.319 7.85C207.889 7.51 207.289 7.34 206.519 7.34C205.959 7.34 205.489 7.475 205.109 7.745C204.739 8.015 204.554 8.35 204.554 8.75ZM206.339 3.41C207.359 3.41 208.164 3.685 208.754 4.235C209.344 4.775 209.639 5.52 209.639 6.47V11H208.319V9.98H208.259C207.689 10.82 206.929 11.24 205.979 11.24C205.169 11.24 204.489 11 203.939 10.52C203.399 10.04 203.129 9.44 203.129 8.72C203.129 7.96 203.414 7.355 203.984 6.905C204.564 6.455 205.334 6.23 206.294 6.23C207.114 6.23 207.789 6.38 208.319 6.68V6.365C208.319 5.885 208.129 5.48 207.749 5.15C207.369 4.81 206.924 4.64 206.414 4.64C205.644 4.64 205.034 4.965 204.584 5.615L203.369 4.85C204.039 3.89 205.029 3.41 206.339 3.41ZM212.576 11H211.196V3.65H212.516V4.67H212.576C212.786 4.31 213.106 4.01 213.536 3.77C213.976 3.53 214.411 3.41 214.841 3.41C215.381 3.41 215.856 3.535 216.266 3.785C216.676 4.035 216.976 4.38 217.166 4.82C217.776 3.88 218.621 3.41 219.701 3.41C220.551 3.41 221.206 3.67 221.666 4.19C222.126 4.71 222.356 5.45 222.356 6.41V11H220.976V6.62C220.976 5.93 220.851 5.435 220.601 5.135C220.351 4.825 219.931 4.67 219.341 4.67C218.811 4.67 218.366 4.895 218.006 5.345C217.646 5.795 217.466 6.325 217.466 6.935V11H216.086V6.62C216.086 5.93 215.961 5.435 215.711 5.135C215.461 4.825 215.041 4.67 214.451 4.67C213.921 4.67 213.476 4.895 213.116 5.345C212.756 5.795 212.576 6.325 212.576 6.935V11ZM227.569 9.98C228.229 9.98 228.784 9.73 229.234 9.23C229.684 8.74 229.909 8.105 229.909 7.325C229.909 6.555 229.684 5.92 229.234 5.42C228.784 4.92 228.229 4.67 227.569 4.67C226.899 4.67 226.339 4.92 225.889 5.42C225.449 5.92 225.229 6.555 225.229 7.325C225.229 8.105 225.449 8.745 225.889 9.245C226.339 9.735 226.899 9.98 227.569 9.98ZM227.794 11.24C227.254 11.24 226.759 11.125 226.309 10.895C225.869 10.665 225.529 10.36 225.289 9.98H225.229L225.289 11V14.24H223.909V3.65H225.229V4.67H225.289C225.529 4.29 225.869 3.985 226.309 3.755C226.759 3.525 227.254 3.41 227.794 3.41C228.764 3.41 229.584 3.79 230.254 4.55C230.944 5.32 231.289 6.245 231.289 7.325C231.289 8.415 230.944 9.34 230.254 10.1C229.584 10.86 228.764 11.24 227.794 11.24ZM238.93 11H237.61V9.98H237.55C237.34 10.34 237.015 10.64 236.575 10.88C236.145 11.12 235.695 11.24 235.225 11.24C234.325 11.24 233.63 10.985 233.14 10.475C232.66 9.955 232.42 9.22 232.42 8.27V3.65H233.8V8.18C233.83 9.38 234.435 9.98 235.615 9.98C236.165 9.98 236.625 9.76 236.995 9.32C237.365 8.87 237.55 8.335 237.55 7.715V3.65H238.93V11ZM246.162 8.96C246.162 9.6 245.882 10.14 245.322 10.58C244.762 11.02 244.057 11.24 243.207 11.24C242.467 11.24 241.817 11.05 241.257 10.67C240.697 10.28 240.297 9.77 240.057 9.14L241.287 8.615C241.467 9.055 241.727 9.4 242.067 9.65C242.417 9.89 242.797 10.01 243.207 10.01C243.647 10.01 244.012 9.915 244.302 9.725C244.602 9.535 244.752 9.31 244.752 9.05C244.752 8.58 244.392 8.235 243.672 8.015L242.412 7.7C240.982 7.34 240.267 6.65 240.267 5.63C240.267 4.96 240.537 4.425 241.077 4.025C241.627 3.615 242.327 3.41 243.177 3.41C243.827 3.41 244.412 3.565 244.932 3.875C245.462 4.185 245.832 4.6 246.042 5.12L244.812 5.63C244.672 5.32 244.442 5.08 244.122 4.91C243.812 4.73 243.462 4.64 243.072 4.64C242.712 4.64 242.387 4.73 242.097 4.91C241.817 5.09 241.677 5.31 241.677 5.57C241.677 5.99 242.072 6.29 242.862 6.47L243.972 6.755C245.432 7.115 246.162 7.85 246.162 8.96ZM60.9306 29V18.26H64.2156C65.8556 18.26 67.1706 18.755 68.1606 19.745C69.1606 20.735 69.6606 22.03 69.6606 23.63C69.6606 25.24 69.1606 26.54 68.1606 27.53C67.1706 28.51 65.8556 29 64.2156 29H60.9306ZM62.3106 19.58V27.68H64.2156C65.4656 27.68 66.4506 27.325 67.1706 26.615C67.8906 25.895 68.2506 24.9 68.2506 23.63C68.2506 22.37 67.8906 21.38 67.1706 20.66C66.4506 19.94 65.4656 19.58 64.2156 19.58H62.3106ZM70.422 25.325C70.422 24.195 70.777 23.26 71.487 22.52C72.207 21.78 73.112 21.41 74.202 21.41C75.292 21.41 76.192 21.78 76.902 22.52C77.622 23.26 77.982 24.195 77.982 25.325C77.982 26.465 77.622 27.4 76.902 28.13C76.192 28.87 75.292 29.24 74.202 29.24C73.112 29.24 72.207 28.87 71.487 28.13C70.777 27.39 70.422 26.455 70.422 25.325ZM71.802 25.325C71.802 26.115 72.032 26.755 72.492 27.245C72.952 27.735 73.522 27.98 74.202 27.98C74.882 27.98 75.452 27.735 75.912 27.245C76.372 26.755 76.602 26.115 76.602 25.325C76.602 24.545 76.372 23.91 75.912 23.42C75.442 22.92 74.872 22.67 74.202 22.67C73.532 22.67 72.962 22.92 72.492 23.42C72.032 23.91 71.802 24.545 71.802 25.325ZM79.089 21.65H80.409V22.67H80.469C80.679 22.31 80.999 22.01 81.429 21.77C81.869 21.53 82.324 21.41 82.794 21.41C83.694 21.41 84.384 21.67 84.864 22.19C85.354 22.7 85.599 23.43 85.599 24.38V29H84.219V24.47C84.189 23.27 83.584 22.67 82.404 22.67C81.854 22.67 81.394 22.895 81.024 23.345C80.654 23.785 80.469 24.315 80.469 24.935V29H79.089V21.65ZM90.4457 27.98C91.1257 27.98 91.6807 27.735 92.1107 27.245C92.5607 26.755 92.7857 26.115 92.7857 25.325C92.7857 24.555 92.5607 23.92 92.1107 23.42C91.6707 22.92 91.1157 22.67 90.4457 22.67C89.7857 22.67 89.2307 22.92 88.7807 23.42C88.3307 23.92 88.1057 24.555 88.1057 25.325C88.1057 26.105 88.3307 26.74 88.7807 27.23C89.2307 27.73 89.7857 27.98 90.4457 27.98ZM90.4007 32.48C89.9907 32.48 89.6057 32.425 89.2457 32.315C88.8857 32.215 88.5557 32.07 88.2557 31.88C87.9657 31.69 87.7157 31.465 87.5057 31.205C87.2957 30.945 87.1357 30.655 87.0257 30.335L88.3307 29.795C88.4807 30.225 88.7407 30.57 89.1107 30.83C89.4807 31.09 89.9107 31.22 90.4007 31.22C91.1507 31.22 91.7357 30.995 92.1557 30.545C92.5757 30.095 92.7857 29.475 92.7857 28.685V27.98H92.7257C92.4657 28.37 92.1107 28.68 91.6607 28.91C91.2207 29.13 90.7407 29.24 90.2207 29.24C89.2607 29.24 88.4357 28.865 87.7457 28.115C87.0657 27.345 86.7257 26.415 86.7257 25.325C86.7257 24.235 87.0657 23.31 87.7457 22.55C88.4357 21.79 89.2607 21.41 90.2207 21.41C90.7407 21.41 91.2207 21.525 91.6607 21.755C92.1107 21.975 92.4657 22.28 92.7257 22.67H92.7857V21.65H94.1057V28.685C94.1057 29.865 93.7707 30.79 93.1007 31.46C92.4207 32.14 91.5207 32.48 90.4007 32.48ZM99.015 27.98C99.695 27.98 100.25 27.735 100.68 27.245C101.13 26.755 101.355 26.115 101.355 25.325C101.355 24.555 101.13 23.92 100.68 23.42C100.24 22.92 99.685 22.67 99.015 22.67C98.355 22.67 97.8 22.92 97.35 23.42C96.9 23.92 96.675 24.555 96.675 25.325C96.675 26.105 96.9 26.74 97.35 27.23C97.8 27.73 98.355 27.98 99.015 27.98ZM98.97 32.48C98.56 32.48 98.175 32.425 97.815 32.315C97.455 32.215 97.125 32.07 96.825 31.88C96.535 31.69 96.285 31.465 96.075 31.205C95.865 30.945 95.705 30.655 95.595 30.335L96.9 29.795C97.05 30.225 97.31 30.57 97.68 30.83C98.05 31.09 98.48 31.22 98.97 31.22C99.72 31.22 100.305 30.995 100.725 30.545C101.145 30.095 101.355 29.475 101.355 28.685V27.98H101.295C101.035 28.37 100.68 28.68 100.23 28.91C99.79 29.13 99.31 29.24 98.79 29.24C97.83 29.24 97.005 28.865 96.315 28.115C95.635 27.345 95.295 26.415 95.295 25.325C95.295 24.235 95.635 23.31 96.315 22.55C97.005 21.79 97.83 21.41 98.79 21.41C99.31 21.41 99.79 21.525 100.23 21.755C100.68 21.975 101.035 22.28 101.295 22.67H101.355V21.65H102.675V28.685C102.675 29.865 102.34 30.79 101.67 31.46C100.99 32.14 100.09 32.48 98.97 32.48ZM110.734 29H109.414V27.98H109.354C109.144 28.34 108.819 28.64 108.379 28.88C107.949 29.12 107.499 29.24 107.029 29.24C106.129 29.24 105.434 28.985 104.944 28.475C104.464 27.955 104.224 27.22 104.224 26.27V21.65H105.604V26.18C105.634 27.38 106.239 27.98 107.419 27.98C107.969 27.98 108.429 27.76 108.799 27.32C109.169 26.87 109.354 26.335 109.354 25.715V21.65H110.734V29ZM118.879 29H117.214L114.919 25.535L113.794 26.645V29H112.414V18.26H113.794V24.875L116.974 21.65H118.744V21.71L115.879 24.56L118.879 28.94V29ZM126.643 29.24C125.453 29.24 124.493 28.85 123.763 28.07C123.033 27.3 122.668 26.28 122.668 25.01V18.26H124.048V25.07C124.048 25.95 124.278 26.645 124.738 27.155C125.198 27.665 125.833 27.92 126.643 27.92C127.453 27.92 128.088 27.665 128.548 27.155C129.008 26.645 129.238 25.95 129.238 25.07V18.26H130.618V25.01C130.618 26.31 130.258 27.34 129.538 28.1C128.818 28.86 127.853 29.24 126.643 29.24ZM132.292 21.65H133.612V22.67H133.672C133.882 22.31 134.202 22.01 134.632 21.77C135.072 21.53 135.527 21.41 135.997 21.41C136.897 21.41 137.587 21.67 138.067 22.19C138.557 22.7 138.802 23.43 138.802 24.38V29H137.422V24.47C137.392 23.27 136.787 22.67 135.607 22.67C135.057 22.67 134.597 22.895 134.227 23.345C133.857 23.785 133.672 24.315 133.672 24.935V29H132.292V21.65ZM142.207 19.115C142.207 19.385 142.112 19.615 141.922 19.805C141.732 19.995 141.502 20.09 141.232 20.09C140.962 20.09 140.732 19.995 140.542 19.805C140.352 19.615 140.257 19.385 140.257 19.115C140.257 18.845 140.352 18.615 140.542 18.425C140.732 18.235 140.962 18.14 141.232 18.14C141.502 18.14 141.732 18.235 141.922 18.425C142.112 18.615 142.207 18.845 142.207 19.115ZM141.922 21.65V29H140.542V21.65H141.922ZM147.288 29H145.908L142.938 21.65H144.438L146.598 27.35H146.628L148.818 21.65H150.288L147.288 29ZM154.269 29.24C153.189 29.24 152.299 28.87 151.599 28.13C150.899 27.39 150.549 26.455 150.549 25.325C150.549 24.205 150.889 23.275 151.569 22.535C152.249 21.785 153.119 21.41 154.179 21.41C155.269 21.41 156.134 21.765 156.774 22.475C157.424 23.175 157.749 24.16 157.749 25.43L157.734 25.58H151.959C151.979 26.3 152.219 26.88 152.679 27.32C153.139 27.76 153.689 27.98 154.329 27.98C155.209 27.98 155.899 27.54 156.399 26.66L157.629 27.26C157.299 27.88 156.839 28.365 156.249 28.715C155.669 29.065 155.009 29.24 154.269 29.24ZM152.064 24.44H156.279C156.239 23.93 156.029 23.51 155.649 23.18C155.279 22.84 154.779 22.67 154.149 22.67C153.629 22.67 153.179 22.83 152.799 23.15C152.429 23.47 152.184 23.9 152.064 24.44ZM160.391 29H159.011V21.65H160.331V22.85H160.391C160.531 22.46 160.816 22.13 161.246 21.86C161.686 21.58 162.116 21.44 162.536 21.44C162.936 21.44 163.276 21.5 163.556 21.62L163.136 22.955C162.966 22.885 162.696 22.85 162.326 22.85C161.806 22.85 161.351 23.06 160.961 23.48C160.581 23.9 160.391 24.39 160.391 24.95V29ZM169.792 26.96C169.792 27.6 169.512 28.14 168.952 28.58C168.392 29.02 167.687 29.24 166.837 29.24C166.097 29.24 165.447 29.05 164.887 28.67C164.327 28.28 163.927 27.77 163.687 27.14L164.917 26.615C165.097 27.055 165.357 27.4 165.697 27.65C166.047 27.89 166.427 28.01 166.837 28.01C167.277 28.01 167.642 27.915 167.932 27.725C168.232 27.535 168.382 27.31 168.382 27.05C168.382 26.58 168.022 26.235 167.302 26.015L166.042 25.7C164.612 25.34 163.897 24.65 163.897 23.63C163.897 22.96 164.167 22.425 164.707 22.025C165.257 21.615 165.957 21.41 166.807 21.41C167.457 21.41 168.042 21.565 168.562 21.875C169.092 22.185 169.462 22.6 169.672 23.12L168.442 23.63C168.302 23.32 168.072 23.08 167.752 22.91C167.442 22.73 167.092 22.64 166.702 22.64C166.342 22.64 166.017 22.73 165.727 22.91C165.447 23.09 165.307 23.31 165.307 23.57C165.307 23.99 165.702 24.29 166.492 24.47L167.602 24.755C169.062 25.115 169.792 25.85 169.792 26.96ZM172.705 19.115C172.705 19.385 172.61 19.615 172.42 19.805C172.23 19.995 172 20.09 171.73 20.09C171.46 20.09 171.23 19.995 171.04 19.805C170.85 19.615 170.755 19.385 170.755 19.115C170.755 18.845 170.85 18.615 171.04 18.425C171.23 18.235 171.46 18.14 171.73 18.14C172 18.14 172.23 18.235 172.42 18.425C172.61 18.615 172.705 18.845 172.705 19.115ZM172.42 21.65V29H171.04V21.65H172.42ZM177.053 29.12C176.453 29.12 175.953 28.935 175.553 28.565C175.163 28.195 174.963 27.68 174.953 27.02V22.91H173.663V21.65H174.953V19.4H176.333V21.65H178.133V22.91H176.333V26.57C176.333 27.06 176.428 27.395 176.618 27.575C176.808 27.745 177.023 27.83 177.263 27.83C177.373 27.83 177.478 27.82 177.578 27.8C177.688 27.77 177.788 27.735 177.878 27.695L178.313 28.925C177.953 29.055 177.533 29.12 177.053 29.12ZM186.089 21.65L181.484 32.24H180.059L181.769 28.535L178.739 21.65H180.239L182.429 26.93H182.459L184.589 21.65H186.089Z" fill="#5F6368"/>
</svg>
